# xmcd
#
# Track frame offsets:
#	150
#	18877
#	43413
#	121347
#	199009
#	231288
#	262752
#	315242
#
# Disc length: 4472 seconds
#
# Revision: 0
# Processed by: cddbd v1.5.2PL0 Copyright (c) Steve Scherf et al.
# Submitted via: audiograbber 1.83.01
#
DISCID=5f117608
DTITLE=Grateful Dead - 78-01-06 Swing Auditorium, San Bernardino CA
DYEAR=1900
DGENRE=
TTITLE0=Lazy Lightning
TTITLE1=Supplication
TTITLE2=Playing In The Band
TTITLE3=Estimated Prophet
TTITLE4=Drums
TTITLE5=The Other One
TTITLE6=Truckin'
TTITLE7=Johnny B Goode
EXTD=
EXTT0=
EXTT1=
EXTT2=
EXTT3=
EXTT4=
EXTT5=
EXTT6=
EXTT7=
PLAYORDER=
